<svg width="67" height="64" viewBox="0 0 67 64" fill="none" xmlns="http://www.w3.org/2000/svg">
<path d="M33.5 5.33334C18.09 5.33334 5.58331 17.28 5.58331 32C5.58331 46.72 18.09 58.6667 33.5 58.6667C48.91 58.6667 61.4166 46.72 61.4166 32C61.4166 17.28 48.91 5.33334 33.5 5.33334ZM33.5 13.3333C38.1341 13.3333 41.875 16.9067 41.875 21.3333C41.875 25.76 38.1341 29.3333 33.5 29.3333C28.8658 29.3333 25.125 25.76 25.125 21.3333C25.125 16.9067 28.8658 13.3333 33.5 13.3333ZM33.5 51.2C26.5208 51.2 20.3512 47.7867 16.75 42.6133C16.8337 37.3067 27.9166 34.4 33.5 34.4C39.0554 34.4 50.1662 37.3067 50.25 42.6133C46.6487 47.7867 40.4791 51.2 33.5 51.2Z" fill="#4CE6F5"/>
</svg>
